# xmcd
#
# Track frame offsets: 
#        150
#        9002
#        20298
#        28936
#        39333
#        49418
#        59337
#        72734
#        83559
#        95618
#        105945
#        117014
#        126466
#        139027
#
# Disc length: 2007 seconds
#
# Revision: 0
# Processed by: cddbd v1.5.1PL0 Copyright (c) Steve Scherf et al.
# Submitted via: ExactAudioCopy v0.95a5
#
DISCID=b407d50e
DTITLE=Lonesome Whistle Band - On The Right Track
DYEAR=2001
DGENRE=Bluegrass
TTITLE0=This Is The E
TTITLE1=Pretty Girl
TTITLE2=Fire On The Mountain
TTITLE3=Can't Find A Bridge
TTITLE4=Mark It Down
TTITLE5=You Better Get Right
TTITLE6=Against The Wall
TTITLE7=Down In The Piney Woods
TTITLE8=Room At The Top Of The Stairs
TTITLE9=Traveling The Highway Home
TTITLE10=In The Highways
TTITLE11=Dean Forest Road
TTITLE12=Beautiful Blue Eyes
TTITLE13=John Henry
EXTD=
EXTT0=
EXTT1=
EXTT2=
EXTT3=
EXTT4=
EXTT5=
EXTT6=
EXTT7=
EXTT8=
EXTT9=
EXTT10=
EXTT11=
EXTT12=
EXTT13=
PLAYORDER=
